<?xml version="1.0" encoding="utf-8"?>
<!-- Generator: Adobe Illustrator 27.5.0, SVG Export Plug-In . SVG Version: 6.00 Build 0)  -->
<svg version="1.1" id="Capa_1" xmlns="http://www.w3.org/2000/svg" xmlns:xlink="http://www.w3.org/1999/xlink" x="0px" y="0px"
	 viewBox="0 0 425.195 425.197" style="enable-background:new 0 0 425.195 425.197;" xml:space="preserve">
<g id="Paquete_de_vectores:_motivo_de_puntos_15">
</g>
<g id="Paquete_de_vectores:_motivo_de_puntos_15_1_">
</g>
<g id="Paquete_de_vectores:_motivo_de_puntos_03">
</g>
<g>
	<defs>
		<rect id="SVGID_1_" x="0" y="0" width="425.195" height="425.197"/>
	</defs>
	<use xlink:href="#SVGID_1_"  style="overflow:visible;fill:#13220B;"/>
	<clipPath id="SVGID_00000052095955157291103150000010356275429188345483_">
		<use xlink:href="#SVGID_1_"  style="overflow:visible;"/>
	</clipPath>
	<g style="clip-path:url(#SVGID_00000052095955157291103150000010356275429188345483_);">
		<g>
			<g>
				<path style="fill:none;stroke:#3E5335;stroke-width:1.0984;stroke-miterlimit:10;" d="M-13.153,242.021
					c0,0-4.487-47.668,0-62.811c4.485-15.14,18.271-40.937,17.382-55.517"/>
				<path style="fill:none;stroke:#3E5335;stroke-width:1.0984;stroke-miterlimit:10;" d="M-20.303,146.265
					c0,0,7.479,21.054,6.332,36.591"/>
			</g>
			<g>
				<g>
					<g>
						<path style="fill:#708368;" d="M12.173,78.377C12.6,78.648,1.098,91.516-4.158,106.993c-5.117,16.009,6.729,26.504,7,26.258
							c0.172,0.321,14.82-5.668,15.285-22.47C18.281,94.438,11.682,78.491,12.173,78.377z"/>
					</g>
				</g>
				<g>
					<g>
						<path style="fill:#708368;" d="M-28.346,103.166c0.495,0.097-5.521,16.272-4.77,32.601
							c1.074,16.772,15.932,22.225,16.095,21.897c0.279,0.236,11.735-10.684,6.038-26.497
							C-16.799,115.892-28.764,103.452-28.346,103.166z"/>
					</g>
				</g>
			</g>
		</g>
		<g>
			<g>
				<path style="fill:none;stroke:#3E5335;stroke-width:1.0984;stroke-miterlimit:10;" d="M-32.022,207.24
					c0,0,3.296-62.779-32.952-108.757"/>
				<path style="fill:none;stroke:#3E5335;stroke-width:1.0984;stroke-miterlimit:10;" d="M-37.515,157.459
					c0,0-13.729-22.568-41.19-39.045"/>
				<path style="fill:none;stroke:#3E5335;stroke-width:1.0984;stroke-miterlimit:10;" d="M-48.459,125.624
					c0,0-3.885-15.631,1.791-28.053"/>
			</g>
			<g>
				<g>
					<g>
						<path style="fill:#708368;" d="M-94.728,59.016c-0.257,0.438,15.89,6.54,27.699,17.84
							c11.929,11.837,6.269,26.618,5.917,26.523c-0.006,0.366-15.766,1.817-23.937-12.87C-92.732,76.083-94.24,58.889-94.728,59.016
							z"/>
					</g>
				</g>
				<g>
					<g>
						<path style="fill:#708368;" d="M-34.914,60.058c-0.403,0.037,3.072,13.409,1.146,26.351
							c-2.224,13.271-14.501,16.403-14.602,16.129c-0.243,0.166-8.476-9.464-2.653-21.594
							C-45.145,69.252-34.604,60.318-34.914,60.058z"/>
					</g>
				</g>
				<g>
					<g>
						<path style="fill:#708368;" d="M-114.842,101.847c0.305-0.27,7.621,11.453,18.342,18.955
							c11.162,7.515,21.879,0.757,21.752,0.494c0.285-0.062-1.041-12.661-13.854-16.778
							C-101.129,100.745-114.865,102.249-114.842,101.847z"/>
					</g>
				</g>
			</g>
		</g>
		<g>
			<g>
				<path style="fill:none;stroke:#3E5335;stroke-width:1.0984;stroke-miterlimit:10;" d="M-13.153,478.912
					c0,0-4.487-47.669,0-62.812c4.485-15.14,18.271-40.936,17.382-55.517"/>
				<path style="fill:none;stroke:#3E5335;stroke-width:1.0984;stroke-miterlimit:10;" d="M-20.303,383.154
					c0,0,7.479,21.055,6.332,36.592"/>
			</g>
			<g>
				<g>
					<g>
						<path style="fill:#708368;" d="M12.173,315.267c0.427,0.271-11.075,13.139-16.331,28.616c-5.117,16.009,6.729,26.505,7,26.259
							c0.172,0.32,14.82-5.669,15.285-22.47C18.281,331.328,11.682,315.381,12.173,315.267z"/>
					</g>
				</g>
				<g>
					<g>
						<path style="fill:#708368;" d="M-28.346,340.057c0.495,0.097-5.521,16.272-4.77,32.602
							c1.074,16.771,15.932,22.225,16.095,21.896c0.279,0.235,11.735-10.684,6.038-26.497
							C-16.799,352.782-28.764,340.342-28.346,340.057z"/>
					</g>
				</g>
			</g>
		</g>
		<g>
			<g>
				<path style="fill:none;stroke:#3E5335;stroke-width:1.0984;stroke-miterlimit:10;" d="M-32.022,444.131
					c0,0,3.296-62.779-32.952-108.758"/>
				<path style="fill:none;stroke:#3E5335;stroke-width:1.0984;stroke-miterlimit:10;" d="M-37.515,394.35
					c0,0-13.729-22.568-41.19-39.045"/>
				<path style="fill:none;stroke:#3E5335;stroke-width:1.0984;stroke-miterlimit:10;" d="M-48.459,362.514
					c0,0-3.885-15.631,1.791-28.052"/>
			</g>
			<g>
				<g>
					<g>
						<path style="fill:#708368;" d="M-94.728,295.906c-0.257,0.438,15.89,6.539,27.699,17.84
							c11.929,11.838,6.269,26.618,5.917,26.523c-0.006,0.367-15.766,1.818-23.937-12.869
							C-92.732,312.975-94.24,295.779-94.728,295.906z"/>
					</g>
				</g>
				<g>
					<g>
						<path style="fill:#708368;" d="M-34.914,296.947c-0.403,0.037,3.072,13.41,1.146,26.352
							c-2.224,13.272-14.501,16.404-14.602,16.129c-0.243,0.166-8.476-9.464-2.653-21.594
							C-45.145,306.142-34.604,297.209-34.914,296.947z"/>
					</g>
				</g>
				<g>
					<g>
						<path style="fill:#708368;" d="M-114.842,338.738c0.305-0.27,7.621,11.452,18.342,18.955
							c11.162,7.514,21.879,0.756,21.752,0.493c0.285-0.061-1.041-12.661-13.854-16.778
							C-101.129,337.635-114.865,339.141-114.842,338.738z"/>
					</g>
				</g>
			</g>
		</g>
		<g>
			<g>
				<path style="fill:none;stroke:#3E5335;stroke-width:1.0984;stroke-miterlimit:10;" d="M50.309,143.765
					c0,0-4.486-47.669,0-62.812c4.486-15.14,18.271-40.937,17.383-55.517"/>
				<path style="fill:none;stroke:#3E5335;stroke-width:1.0984;stroke-miterlimit:10;" d="M43.16,48.008
					c0,0,7.479,21.054,6.331,36.591"/>
			</g>
			<g>
				<g>
					<g>
						<path style="fill:#708368;" d="M75.637-19.879C76.062-19.608,64.561-6.74,59.305,8.737
							c-5.117,16.009,6.729,26.504,6.999,26.258c0.173,0.321,14.821-5.669,15.286-22.47C81.746-3.818,75.144-19.766,75.637-19.879z"
							/>
					</g>
				</g>
				<g>
					<g>
						<path style="fill:#708368;" d="M35.117,4.91c0.495,0.096-5.521,16.272-4.77,32.601c1.076,16.772,15.935,22.225,16.097,21.897
							c0.279,0.236,11.736-10.684,6.037-26.497C46.662,17.636,34.699,5.195,35.117,4.91z"/>
					</g>
				</g>
			</g>
		</g>
		<g>
			<g>
				<path style="fill:none;stroke:#3E5335;stroke-width:1.0984;stroke-miterlimit:10;" d="M30.203,106.056
					c0,0,3.295-62.78-32.951-108.758"/>
				<path style="fill:none;stroke:#3E5335;stroke-width:1.0984;stroke-miterlimit:10;" d="M24.711,56.276
					c0,0-13.731-22.569-41.191-39.046"/>
				<path style="fill:none;stroke:#3E5335;stroke-width:1.0984;stroke-miterlimit:10;" d="M13.766,24.439
					c0,0-3.885-15.631,1.791-28.053"/>
			</g>
			<g>
				<g>
					<g>
						<path style="fill:#708368;" d="M-32.502-42.169c-0.257,0.438,15.891,6.54,27.699,17.84C7.126-12.491,1.466,2.289,1.113,2.195
							C1.107,2.561-14.65,4.012-22.822-10.675C-30.508-25.101-32.016-42.294-32.502-42.169z"/>
					</g>
				</g>
				<g>
					<g>
						<path style="fill:#708368;" d="M27.312-41.126c-0.403,0.036,3.073,13.408,1.146,26.351
							c-2.225,13.271-14.5,16.404-14.602,16.13c-0.243,0.164-8.476-9.465-2.654-21.595C17.08-31.932,27.622-40.866,27.312-41.126z"
							/>
					</g>
				</g>
				<g>
					<g>
						<path style="fill:#708368;" d="M-52.617,0.663c0.305-0.269,7.622,11.453,18.342,18.955
							c11.162,7.515,21.879,0.757,21.752,0.494c0.285-0.061-1.041-12.661-13.852-16.778C-38.904-0.44-52.64,1.065-52.617,0.663z"/>
					</g>
				</g>
			</g>
		</g>
		<g>
			<g>
				<path style="fill:none;stroke:#3E5335;stroke-width:1.0984;stroke-miterlimit:10;" d="M195.205,149.243
					c0,0-4.485-47.668,0-62.811c4.486-15.14,18.274-40.937,17.385-55.518"/>
				<path style="fill:none;stroke:#3E5335;stroke-width:1.0984;stroke-miterlimit:10;" d="M188.057,53.486
					c0,0,7.48,21.054,6.333,36.591"/>
			</g>
			<g>
				<g>
					<g>
						<path style="fill:#708368;" d="M220.533-14.401c0.428,0.271-11.076,13.139-16.331,28.617
							c-5.117,16.008,6.73,26.503,6.998,26.258c0.173,0.321,14.821-5.669,15.286-22.469C226.641,1.66,220.041-14.288,220.533-14.401
							z"/>
					</g>
				</g>
				<g>
					<g>
						<path style="fill:#708368;" d="M180.014,10.388c0.495,0.096-5.52,16.272-4.77,32.601
							c1.075,16.772,15.932,22.225,16.095,21.897c0.28,0.236,11.734-10.684,6.036-26.496
							C191.557,23.114,179.596,10.673,180.014,10.388z"/>
					</g>
				</g>
			</g>
		</g>
		<g>
			<g>
				<path style="fill:none;stroke:#3E5335;stroke-width:1.0984;stroke-miterlimit:10;" d="M175.1,111.535
					c0,0,3.297-62.78-32.954-108.758"/>
				<path style="fill:none;stroke:#3E5335;stroke-width:1.0984;stroke-miterlimit:10;" d="M169.607,61.753
					c0,0-13.73-22.568-41.191-39.045"/>
				<path style="fill:none;stroke:#3E5335;stroke-width:1.0984;stroke-miterlimit:10;" d="M158.662,29.917
					c0,0-3.885-15.631,1.792-28.053"/>
			</g>
			<g>
				<g>
					<g>
						<path style="fill:#708368;" d="M112.393-36.691c-0.254,0.438,15.891,6.54,27.701,17.84
							c11.929,11.838,6.269,26.618,5.917,26.524c-0.007,0.366-15.765,1.817-23.936-12.87
							C114.391-19.623,112.883-36.817,112.393-36.691z"/>
					</g>
				</g>
				<g>
					<g>
						<path style="fill:#708368;" d="M172.208-35.649c-0.403,0.037,3.071,13.409,1.146,26.351
							c-2.225,13.271-14.5,16.404-14.604,16.13c-0.24,0.165-8.475-9.465-2.651-21.595C161.978-26.454,172.517-35.388,172.208-35.649
							z"/>
					</g>
				</g>
				<g>
					<g>
						<path style="fill:#708368;" d="M92.281,6.141c0.301-0.27,7.62,11.453,18.34,18.955c11.164,7.515,21.879,0.757,21.752,0.494
							c0.286-0.062-1.042-12.661-13.852-16.778C105.992,5.038,92.257,6.543,92.281,6.141z"/>
					</g>
				</g>
			</g>
		</g>
		<g>
			<g>
				<path style="fill:none;stroke:#3E5335;stroke-width:1.0984;stroke-miterlimit:10;" d="M340.102,154.721
					c0,0-4.486-47.668,0-62.811c4.487-15.14,18.272-40.937,17.383-55.518"/>
				<path style="fill:none;stroke:#3E5335;stroke-width:1.0984;stroke-miterlimit:10;" d="M332.953,58.964
					c0,0,7.48,21.054,6.331,36.591"/>
			</g>
			<g>
				<g>
					<g>
						<path style="fill:#708368;" d="M365.43-8.923c0.428,0.271-11.076,13.139-16.331,28.617
							c-5.116,16.008,6.729,26.504,6.998,26.258c0.173,0.321,14.823-5.669,15.286-22.47C371.539,7.138,364.938-8.809,365.43-8.923z"
							/>
					</g>
				</g>
				<g>
					<g>
						<path style="fill:#708368;" d="M324.911,15.866c0.495,0.097-5.521,16.272-4.771,32.601
							c1.076,16.771,15.933,22.225,16.097,21.897c0.277,0.235,11.734-10.684,6.036-26.497
							C336.455,28.592,324.493,16.151,324.911,15.866z"/>
					</g>
				</g>
			</g>
		</g>
		<g>
			<g>
				<path style="fill:none;stroke:#3E5335;stroke-width:1.0984;stroke-miterlimit:10;" d="M319.996,117.013
					c0,0,3.297-62.78-32.951-108.758"/>
				<path style="fill:none;stroke:#3E5335;stroke-width:1.0984;stroke-miterlimit:10;" d="M314.504,67.231
					c0,0-13.73-22.568-41.191-39.045"/>
				<path style="fill:none;stroke:#3E5335;stroke-width:1.0984;stroke-miterlimit:10;" d="M303.56,35.396
					c0,0-3.884-15.631,1.791-28.052"/>
			</g>
			<g>
				<g>
					<g>
						<path style="fill:#708368;" d="M257.291-31.212c-0.256,0.438,15.891,6.539,27.699,17.84
							c11.929,11.837,6.27,26.618,5.915,26.523c-0.004,0.366-15.765,1.817-23.936-12.87
							C259.287-14.145,257.779-31.339,257.291-31.212z"/>
					</g>
				</g>
				<g>
					<g>
						<path style="fill:#708368;" d="M317.107-30.171c-0.404,0.037,3.071,13.409,1.145,26.351
							c-2.225,13.272-14.501,16.404-14.604,16.129c-0.243,0.166-8.476-9.464-2.65-21.594
							C306.873-20.977,317.416-29.91,317.107-30.171z"/>
					</g>
				</g>
				<g>
					<g>
						<path style="fill:#708368;" d="M237.176,11.619c0.305-0.269,7.623,11.453,18.342,18.955
							c11.162,7.514,21.879,0.757,21.752,0.494c0.287-0.062-1.041-12.661-13.853-16.778
							C250.889,10.516,237.155,12.021,237.176,11.619z"/>
					</g>
				</g>
			</g>
		</g>
		<g>
			<g>
				<path style="fill:none;stroke:#3E5335;stroke-width:1.0984;stroke-miterlimit:10;" d="M484.998,160.199
					c0,0-4.486-47.669,0-62.811c4.487-15.14,18.271-40.937,17.383-55.517"/>
				<path style="fill:none;stroke:#3E5335;stroke-width:1.0984;stroke-miterlimit:10;" d="M477.85,64.443
					c0,0,7.479,21.054,6.332,36.591"/>
			</g>
			<g>
				<g>
					<g>
						<path style="fill:#708368;" d="M510.326-3.445c0.426,0.271-11.074,13.139-16.331,28.617
							c-5.116,16.009,6.729,26.504,6.998,26.258c0.173,0.321,14.823-5.668,15.286-22.469
							C516.436,12.616,509.834-3.331,510.326-3.445z"/>
					</g>
				</g>
				<g>
					<g>
						<path style="fill:#708368;" d="M469.807,21.344c0.496,0.097-5.521,16.272-4.771,32.601
							c1.076,16.772,15.935,22.225,16.097,21.897c0.279,0.236,11.734-10.684,6.036-26.497
							C481.352,34.071,469.39,21.629,469.807,21.344z"/>
					</g>
				</g>
			</g>
		</g>
		<g>
			<g>
				<path style="fill:none;stroke:#3E5335;stroke-width:1.0984;stroke-miterlimit:10;" d="M464.893,122.491
					c0,0,3.297-62.78-32.953-108.758"/>
				<path style="fill:none;stroke:#3E5335;stroke-width:1.0984;stroke-miterlimit:10;" d="M459.4,72.709
					c0,0-13.73-22.568-41.191-39.044"/>
				<path style="fill:none;stroke:#3E5335;stroke-width:1.0984;stroke-miterlimit:10;" d="M448.455,40.874
					c0,0-3.883-15.631,1.793-28.053"/>
			</g>
			<g>
				<g>
					<g>
						<path style="fill:#708368;" d="M402.188-25.734c-0.257,0.438,15.891,6.539,27.699,17.84
							c11.929,11.837,6.267,26.618,5.918,26.524c-0.007,0.366-15.766,1.817-23.936-12.87
							C404.184-8.667,402.676-25.861,402.188-25.734z"/>
					</g>
				</g>
				<g>
					<g>
						<path style="fill:#708368;" d="M462.002-24.692c-0.404,0.037,3.072,13.409,1.145,26.351
							c-2.224,13.272-14.5,16.404-14.602,16.129c-0.242,0.166-8.477-9.464-2.652-21.594
							C451.771-15.498,462.311-24.432,462.002-24.692z"/>
					</g>
				</g>
				<g>
					<g>
						<path style="fill:#708368;" d="M382.074,17.097c0.303-0.269,7.619,11.453,18.34,18.955
							c11.164,7.515,21.879,0.756,21.752,0.494c0.287-0.062-1.041-12.661-13.853-16.778C395.785,15.995,382.051,17.5,382.074,17.097
							z"/>
					</g>
				</g>
			</g>
		</g>
		<g>
			<g>
				<path style="fill:none;stroke:#3E5335;stroke-width:1.0984;stroke-miterlimit:10;" d="M154.827,242.021
					c0,0-4.487-47.668,0-62.811c4.485-15.14,18.271-40.937,17.383-55.517"/>
				<path style="fill:none;stroke:#3E5335;stroke-width:1.0984;stroke-miterlimit:10;" d="M147.678,146.265
					c0,0,7.48,21.054,6.332,36.591"/>
			</g>
			<g>
				<g>
					<g>
						<path style="fill:#708368;" d="M180.153,78.377c0.428,0.271-11.074,13.139-16.331,28.616c-5.116,16.009,6.73,26.504,7,26.258
							c0.172,0.321,14.821-5.668,15.285-22.47C186.264,94.438,179.662,78.491,180.153,78.377z"/>
					</g>
				</g>
				<g>
					<g>
						<path style="fill:#708368;" d="M139.635,103.166c0.496,0.097-5.521,16.272-4.77,32.601
							c1.074,16.772,15.934,22.225,16.096,21.897c0.279,0.236,11.735-10.684,6.037-26.497
							C151.181,115.892,139.217,103.452,139.635,103.166z"/>
					</g>
				</g>
			</g>
		</g>
		<g>
			<g>
				<path style="fill:none;stroke:#3E5335;stroke-width:1.0984;stroke-miterlimit:10;" d="M303.25,242.021
					c0,0-4.486-47.668,0-62.811c4.484-15.14,18.271-40.937,17.382-55.517"/>
				<path style="fill:none;stroke:#3E5335;stroke-width:1.0984;stroke-miterlimit:10;" d="M296.102,146.265
					c0,0,7.479,21.054,6.33,36.591"/>
			</g>
			<g>
				<g>
					<g>
						<path style="fill:#708368;" d="M328.577,78.377c0.426,0.271-11.076,13.139-16.333,28.616c-5.117,16.009,6.729,26.504,7,26.258
							c0.174,0.321,14.821-5.668,15.286-22.47C334.686,94.438,328.085,78.491,328.577,78.377z"/>
					</g>
				</g>
				<g>
					<g>
						<path style="fill:#708368;" d="M288.059,103.166c0.495,0.097-5.521,16.272-4.771,32.601
							c1.076,16.772,15.934,22.225,16.097,21.897c0.278,0.236,11.735-10.684,6.036-26.497
							C299.604,115.892,287.64,103.452,288.059,103.166z"/>
					</g>
				</g>
			</g>
		</g>
		<g>
			<g>
				<path style="fill:none;stroke:#3E5335;stroke-width:1.0984;stroke-miterlimit:10;" d="M444.619,242.021
					c0,0-4.486-47.668,0-62.811c4.486-15.14,18.271-40.937,17.383-55.517"/>
				<path style="fill:none;stroke:#3E5335;stroke-width:1.0984;stroke-miterlimit:10;" d="M437.471,146.265
					c0,0,7.479,21.054,6.332,36.591"/>
			</g>
			<g>
				<g>
					<g>
						<path style="fill:#708368;" d="M469.946,78.377c0.427,0.271-11.074,13.139-16.331,28.616c-5.116,16.009,6.729,26.504,7,26.258
							c0.172,0.321,14.821-5.668,15.284-22.47C476.057,94.438,469.454,78.491,469.946,78.377z"/>
					</g>
				</g>
				<g>
					<g>
						<path style="fill:#708368;" d="M429.428,103.166c0.496,0.097-5.521,16.272-4.771,32.601
							c1.077,16.772,15.935,22.225,16.098,21.897c0.279,0.236,11.735-10.684,6.037-26.497
							C440.973,115.892,429.01,103.452,429.428,103.166z"/>
					</g>
				</g>
			</g>
		</g>
		<g>
			<g>
				<path style="fill:none;stroke:#3E5335;stroke-width:1.0984;stroke-miterlimit:10;" d="M136.511,207.24
					c0,0,3.297-62.779-32.952-108.757"/>
				<path style="fill:none;stroke:#3E5335;stroke-width:1.0984;stroke-miterlimit:10;" d="M131.02,157.459
					c0,0-13.732-22.568-41.193-39.045"/>
				<path style="fill:none;stroke:#3E5335;stroke-width:1.0984;stroke-miterlimit:10;" d="M120.074,125.624
					c0,0-3.884-15.631,1.792-28.053"/>
			</g>
			<g>
				<g>
					<g>
						<path style="fill:#708368;" d="M73.805,59.016c-0.254,0.438,15.891,6.54,27.699,17.84c11.932,11.837,6.27,26.618,5.918,26.523
							c-0.007,0.366-15.764,1.817-23.936-12.87C75.802,76.083,74.294,58.889,73.805,59.016z"/>
					</g>
				</g>
				<g>
					<g>
						<path style="fill:#708368;" d="M133.621,60.058c-0.405,0.037,3.07,13.409,1.144,26.351
							c-2.223,13.271-14.501,16.403-14.602,16.129c-0.24,0.166-8.477-9.464-2.651-21.594
							C123.389,69.252,133.93,60.318,133.621,60.058z"/>
					</g>
				</g>
				<g>
					<g>
						<path style="fill:#708368;" d="M53.692,101.847c0.302-0.27,7.62,11.453,18.341,18.955c11.163,7.515,21.877,0.757,21.752,0.494
							c0.286-0.062-1.043-12.661-13.852-16.778C67.404,100.745,53.67,102.249,53.692,101.847z"/>
					</g>
				</g>
			</g>
		</g>
		<g>
			<g>
				<path style="fill:none;stroke:#3E5335;stroke-width:1.0984;stroke-miterlimit:10;" d="M289.8,207.24
					c0,0,3.296-62.779-32.952-108.757"/>
				<path style="fill:none;stroke:#3E5335;stroke-width:1.0984;stroke-miterlimit:10;" d="M284.308,157.459
					c0,0-13.732-22.568-41.192-39.045"/>
				<path style="fill:none;stroke:#3E5335;stroke-width:1.0984;stroke-miterlimit:10;" d="M273.363,125.624
					c0,0-3.885-15.631,1.791-28.053"/>
			</g>
			<g>
				<g>
					<g>
						<path style="fill:#708368;" d="M227.094,59.016c-0.256,0.438,15.892,6.54,27.699,17.84
							c11.93,11.837,6.272,26.618,5.916,26.523c-0.004,0.366-15.765,1.817-23.936-12.87
							C229.092,76.083,227.582,58.889,227.094,59.016z"/>
					</g>
				</g>
				<g>
					<g>
						<path style="fill:#708368;" d="M286.908,60.058c-0.402,0.037,3.073,13.409,1.146,26.351
							c-2.224,13.271-14.501,16.403-14.604,16.129c-0.241,0.166-8.475-9.464-2.649-21.594
							C276.678,69.252,287.219,60.318,286.908,60.058z"/>
					</g>
				</g>
				<g>
					<g>
						<path style="fill:#708368;" d="M206.98,101.847c0.303-0.27,7.622,11.453,18.342,18.955c11.162,7.515,21.879,0.757,21.75,0.494
							c0.287-0.062-1.039-12.661-13.852-16.778C220.693,100.745,206.959,102.249,206.98,101.847z"/>
					</g>
				</g>
			</g>
		</g>
		<g>
			<g>
				<path style="fill:none;stroke:#3E5335;stroke-width:1.0984;stroke-miterlimit:10;" d="M429.393,207.24
					c0,0,3.295-62.779-32.953-108.757"/>
				<path style="fill:none;stroke:#3E5335;stroke-width:1.0984;stroke-miterlimit:10;" d="M423.9,157.459
					c0,0-13.73-22.568-41.191-39.044"/>
				<path style="fill:none;stroke:#3E5335;stroke-width:1.0984;stroke-miterlimit:10;" d="M412.955,125.624
					c0,0-3.885-15.631,1.793-28.053"/>
			</g>
			<g>
				<g>
					<g>
						<path style="fill:#708368;" d="M366.686,59.016c-0.256,0.438,15.893,6.54,27.7,17.84c11.93,11.837,6.268,26.618,5.918,26.523
							c-0.007,0.366-15.766,1.817-23.937-12.87C368.684,76.083,367.176,58.889,366.686,59.016z"/>
					</g>
				</g>
				<g>
					<g>
						<path style="fill:#708368;" d="M426.502,60.058c-0.406,0.037,3.071,13.409,1.145,26.351
							c-2.225,13.271-14.5,16.403-14.602,16.129c-0.242,0.166-8.478-9.464-2.652-21.594
							C416.27,69.252,426.811,60.318,426.502,60.058z"/>
					</g>
				</g>
				<g>
					<g>
						<path style="fill:#708368;" d="M346.572,101.847c0.304-0.27,7.621,11.453,18.342,18.955
							c11.164,7.515,21.878,0.756,21.752,0.494c0.287-0.062-1.041-12.661-13.853-16.778
							C360.285,100.745,346.551,102.249,346.572,101.847z"/>
					</g>
				</g>
			</g>
		</g>
		<g>
			<g>
				<path style="fill:none;stroke:#3E5335;stroke-width:1.0984;stroke-miterlimit:10;" d="M397.607,286.409
					c0,0,3.296-62.78-32.953-108.758"/>
				<path style="fill:none;stroke:#3E5335;stroke-width:1.0984;stroke-miterlimit:10;" d="M392.112,236.628
					c0,0-13.729-22.568-41.19-39.045"/>
				<path style="fill:none;stroke:#3E5335;stroke-width:1.0984;stroke-miterlimit:10;" d="M381.168,204.793
					c0,0-3.883-15.631,1.793-28.053"/>
			</g>
			<g>
				<g>
					<g>
						<path style="fill:#708368;" d="M334.9,138.184c-0.255,0.438,15.891,6.539,27.7,17.84c11.928,11.838,6.267,26.618,5.916,26.524
							c-0.006,0.365-15.765,1.816-23.936-12.871C336.897,155.252,335.388,138.058,334.9,138.184z"/>
					</g>
				</g>
				<g>
					<g>
						<path style="fill:#708368;" d="M394.715,139.226c-0.404,0.037,3.071,13.409,1.143,26.351
							c-2.224,13.271-14.499,16.403-14.6,16.13c-0.242,0.164-8.476-9.465-2.652-21.595
							C384.484,148.42,395.025,139.487,394.715,139.226z"/>
					</g>
				</g>
				<g>
					<g>
						<path style="fill:#708368;" d="M314.787,181.016c0.303-0.27,7.62,11.453,18.34,18.955c11.164,7.515,21.879,0.756,21.752,0.494
							c0.287-0.063-1.041-12.661-13.854-16.778C328.499,179.913,314.764,181.418,314.787,181.016z"/>
					</g>
				</g>
			</g>
		</g>
		<g>
			<g>
				<path style="fill:none;stroke:#3E5335;stroke-width:1.0984;stroke-miterlimit:10;" d="M248.35,286.409
					c0,0,3.295-62.78-32.953-108.758"/>
				<path style="fill:none;stroke:#3E5335;stroke-width:1.0984;stroke-miterlimit:10;" d="M242.855,236.628
					c0,0-13.729-22.568-41.189-39.045"/>
				<path style="fill:none;stroke:#3E5335;stroke-width:1.0984;stroke-miterlimit:10;" d="M231.911,204.793
					c0,0-3.882-15.631,1.794-28.053"/>
			</g>
			<g>
				<g>
					<g>
						<path style="fill:#708368;" d="M185.644,138.184c-0.255,0.438,15.891,6.539,27.698,17.84
							c11.93,11.838,6.27,26.618,5.918,26.524c-0.006,0.365-15.766,1.816-23.936-12.871
							C187.64,155.252,186.131,138.058,185.644,138.184z"/>
					</g>
				</g>
				<g>
					<g>
						<path style="fill:#708368;" d="M245.459,139.226c-0.405,0.037,3.07,13.409,1.144,26.351
							c-2.224,13.271-14.499,16.403-14.602,16.13c-0.241,0.164-8.476-9.465-2.651-21.595
							C235.227,148.42,245.768,139.487,245.459,139.226z"/>
					</g>
				</g>
				<g>
					<g>
						<path style="fill:#708368;" d="M165.529,181.016c0.305-0.27,7.621,11.453,18.342,18.955
							c11.163,7.515,21.879,0.756,21.752,0.494c0.287-0.063-1.041-12.661-13.853-16.778
							C179.242,179.913,165.508,181.418,165.529,181.016z"/>
					</g>
				</g>
			</g>
		</g>
		<g>
			<g>
				<path style="fill:none;stroke:#3E5335;stroke-width:1.0984;stroke-miterlimit:10;" d="M101.904,286.409
					c0,0,3.295-62.78-32.953-108.758"/>
				<path style="fill:none;stroke:#3E5335;stroke-width:1.0984;stroke-miterlimit:10;" d="M96.41,236.628
					c0,0-13.729-22.568-41.191-39.045"/>
				<path style="fill:none;stroke:#3E5335;stroke-width:1.0984;stroke-miterlimit:10;" d="M85.465,204.793
					c0,0-3.882-15.631,1.794-28.053"/>
			</g>
			<g>
				<g>
					<g>
						<path style="fill:#708368;" d="M39.197,138.184c-0.256,0.438,15.891,6.539,27.699,17.84
							c11.93,11.838,6.27,26.618,5.918,26.524c-0.007,0.365-15.766,1.816-23.937-12.871
							C41.193,155.252,39.686,138.058,39.197,138.184z"/>
					</g>
				</g>
				<g>
					<g>
						<path style="fill:#708368;" d="M99.014,139.226c-0.405,0.037,3.07,13.409,1.143,26.351
							c-2.224,13.271-14.5,16.403-14.602,16.13c-0.242,0.164-8.475-9.465-2.651-21.595C88.781,148.42,99.322,139.487,99.014,139.226
							z"/>
					</g>
				</g>
				<g>
					<g>
						<path style="fill:#708368;" d="M19.084,181.016c0.303-0.27,7.621,11.453,18.342,18.955
							c11.162,7.515,21.877,0.756,21.752,0.494c0.286-0.063-1.043-12.661-13.854-16.778
							C32.797,179.913,19.062,181.418,19.084,181.016z"/>
					</g>
				</g>
			</g>
		</g>
		<g>
			<g>
				<path style="fill:none;stroke:#3E5335;stroke-width:1.0984;stroke-miterlimit:10;" d="M50.309,380.656c0,0-4.486-47.67,0-62.811
					c4.486-15.141,18.271-40.938,17.383-55.519"/>
				<path style="fill:none;stroke:#3E5335;stroke-width:1.0984;stroke-miterlimit:10;" d="M43.16,284.898
					c0,0,7.479,21.055,6.331,36.592"/>
			</g>
			<g>
				<g>
					<g>
						<path style="fill:#708368;" d="M75.637,217.012c0.425,0.27-11.076,13.139-16.332,28.616
							c-5.117,16.009,6.729,26.504,6.999,26.259c0.173,0.32,14.821-5.67,15.286-22.471
							C81.746,233.072,75.144,217.125,75.637,217.012z"/>
					</g>
				</g>
				<g>
					<g>
						<path style="fill:#708368;" d="M35.117,241.801c0.495,0.096-5.521,16.273-4.77,32.602
							c1.076,16.77,15.935,22.224,16.097,21.896c0.279,0.236,11.736-10.685,6.037-26.497
							C46.662,254.526,34.699,242.086,35.117,241.801z"/>
					</g>
				</g>
			</g>
		</g>
		<g>
			<g>
				<path style="fill:none;stroke:#3E5335;stroke-width:1.0984;stroke-miterlimit:10;" d="M30.203,342.947
					c0,0,3.295-62.779-32.951-108.758"/>
				<path style="fill:none;stroke:#3E5335;stroke-width:1.0984;stroke-miterlimit:10;" d="M24.711,293.166
					c0,0-13.731-22.568-41.191-39.046"/>
				<path style="fill:none;stroke:#3E5335;stroke-width:1.0984;stroke-miterlimit:10;" d="M13.766,261.33
					c0,0-3.885-15.631,1.791-28.053"/>
			</g>
			<g>
				<g>
					<g>
						<path style="fill:#708368;" d="M-32.502,194.722c-0.257,0.438,15.891,6.539,27.699,17.841
							c11.929,11.837,6.269,26.617,5.916,26.523c-0.006,0.365-15.764,1.816-23.936-12.871
							C-30.508,211.789-32.016,194.596-32.502,194.722z"/>
					</g>
				</g>
				<g>
					<g>
						<path style="fill:#708368;" d="M27.312,195.764c-0.403,0.036,3.073,13.408,1.146,26.351
							c-2.225,13.273-14.5,16.404-14.602,16.13c-0.243,0.165-8.476-9.465-2.654-21.594C17.08,204.958,27.622,196.024,27.312,195.764
							z"/>
					</g>
				</g>
				<g>
					<g>
						<path style="fill:#708368;" d="M-52.617,237.553c0.305-0.27,7.622,11.453,18.342,18.955
							c11.162,7.516,21.879,0.758,21.752,0.494c0.285-0.061-1.041-12.661-13.852-16.777
							C-38.904,236.451-52.64,237.955-52.617,237.553z"/>
					</g>
				</g>
			</g>
		</g>
		<g>
			<g>
				<path style="fill:none;stroke:#3E5335;stroke-width:1.0984;stroke-miterlimit:10;" d="M195.205,386.134
					c0,0-4.485-47.669,0-62.811c4.486-15.141,18.274-40.936,17.385-55.518"/>
				<path style="fill:none;stroke:#3E5335;stroke-width:1.0984;stroke-miterlimit:10;" d="M188.057,290.377
					c0,0,7.48,21.055,6.333,36.592"/>
			</g>
			<g>
				<g>
					<g>
						<path style="fill:#708368;" d="M220.533,222.489c0.428,0.271-11.076,13.14-16.331,28.616
							c-5.117,16.01,6.73,26.504,6.998,26.259c0.173,0.321,14.821-5.669,15.286-22.47
							C226.641,238.551,220.041,222.604,220.533,222.489z"/>
					</g>
				</g>
				<g>
					<g>
						<path style="fill:#708368;" d="M180.014,247.279c0.495,0.096-5.52,16.271-4.77,32.6c1.075,16.772,15.932,22.226,16.095,21.897
							c0.28,0.235,11.734-10.685,6.036-26.497C191.557,260.005,179.596,247.564,180.014,247.279z"/>
					</g>
				</g>
			</g>
		</g>
		<g>
			<g>
				<path style="fill:none;stroke:#3E5335;stroke-width:1.0984;stroke-miterlimit:10;" d="M175.1,348.425
					c0,0,3.297-62.78-32.954-108.758"/>
				<path style="fill:none;stroke:#3E5335;stroke-width:1.0984;stroke-miterlimit:10;" d="M169.607,298.645
					c0,0-13.73-22.568-41.191-39.046"/>
				<path style="fill:none;stroke:#3E5335;stroke-width:1.0984;stroke-miterlimit:10;" d="M158.662,266.809
					c0,0-3.885-15.631,1.792-28.053"/>
			</g>
			<g>
				<g>
					<g>
						<path style="fill:#708368;" d="M112.393,200.199c-0.254,0.438,15.891,6.54,27.701,17.841
							c11.929,11.838,6.269,26.618,5.917,26.523c-0.007,0.366-15.765,1.817-23.936-12.87
							C114.391,217.268,112.883,200.074,112.393,200.199z"/>
					</g>
				</g>
				<g>
					<g>
						<path style="fill:#708368;" d="M172.208,201.242c-0.403,0.036,3.071,13.408,1.146,26.351
							c-2.225,13.271-14.5,16.403-14.604,16.13c-0.24,0.164-8.475-9.465-2.651-21.595
							C161.978,210.436,172.517,201.502,172.208,201.242z"/>
					</g>
				</g>
				<g>
					<g>
						<path style="fill:#708368;" d="M92.281,243.031c0.301-0.27,7.62,11.453,18.34,18.955c11.164,7.516,21.879,0.758,21.752,0.494
							c0.286-0.063-1.042-12.661-13.852-16.778C105.992,241.93,92.257,243.434,92.281,243.031z"/>
					</g>
				</g>
			</g>
		</g>
		<g>
			<g>
				<path style="fill:none;stroke:#3E5335;stroke-width:1.0984;stroke-miterlimit:10;" d="M340.102,391.611
					c0,0-4.486-47.668,0-62.811c4.487-15.141,18.272-40.938,17.383-55.517"/>
				<path style="fill:none;stroke:#3E5335;stroke-width:1.0984;stroke-miterlimit:10;" d="M332.953,295.855
					c0,0,7.48,21.054,6.331,36.591"/>
			</g>
			<g>
				<g>
					<g>
						<path style="fill:#708368;" d="M365.43,227.967c0.428,0.271-11.076,13.14-16.331,28.617
							c-5.116,16.009,6.729,26.504,6.998,26.258c0.173,0.322,14.823-5.668,15.286-22.469
							C371.539,244.029,364.938,228.081,365.43,227.967z"/>
					</g>
				</g>
				<g>
					<g>
						<path style="fill:#708368;" d="M324.911,252.757c0.495,0.097-5.521,16.272-4.771,32.601
							c1.076,16.772,15.933,22.225,16.097,21.897c0.277,0.236,11.734-10.684,6.036-26.496
							C336.455,265.482,324.493,253.042,324.911,252.757z"/>
					</g>
				</g>
			</g>
		</g>
		<g>
			<g>
				<path style="fill:none;stroke:#3E5335;stroke-width:1.0984;stroke-miterlimit:10;" d="M319.996,353.902
					c0,0,3.297-62.779-32.951-108.758"/>
				<path style="fill:none;stroke:#3E5335;stroke-width:1.0984;stroke-miterlimit:10;" d="M314.504,304.122
					c0,0-13.73-22.569-41.191-39.046"/>
				<path style="fill:none;stroke:#3E5335;stroke-width:1.0984;stroke-miterlimit:10;" d="M303.56,272.286
					c0,0-3.884-15.631,1.791-28.053"/>
			</g>
			<g>
				<g>
					<g>
						<path style="fill:#708368;" d="M257.291,205.678c-0.256,0.438,15.891,6.539,27.699,17.84
							c11.929,11.838,6.27,26.619,5.915,26.525c-0.004,0.366-15.765,1.817-23.936-12.87
							C259.287,222.746,257.779,205.552,257.291,205.678z"/>
					</g>
				</g>
				<g>
					<g>
						<path style="fill:#708368;" d="M317.107,206.72c-0.404,0.036,3.071,13.409,1.145,26.351
							c-2.225,13.271-14.501,16.404-14.604,16.131c-0.243,0.164-8.476-9.465-2.65-21.596
							C306.873,215.914,317.416,206.98,317.107,206.72z"/>
					</g>
				</g>
				<g>
					<g>
						<path style="fill:#708368;" d="M237.176,248.51c0.305-0.27,7.623,11.453,18.342,18.955
							c11.162,7.515,21.879,0.757,21.752,0.494c0.287-0.063-1.041-12.662-13.853-16.779
							C250.889,247.407,237.155,248.912,237.176,248.51z"/>
					</g>
				</g>
			</g>
		</g>
		<g>
			<g>
				<path style="fill:none;stroke:#3E5335;stroke-width:1.0984;stroke-miterlimit:10;" d="M484.998,397.09
					c0,0-4.486-47.668,0-62.811c4.487-15.141,18.271-40.938,17.383-55.518"/>
				<path style="fill:none;stroke:#3E5335;stroke-width:1.0984;stroke-miterlimit:10;" d="M477.85,301.333
					c0,0,7.479,21.054,6.332,36.591"/>
			</g>
			<g>
				<g>
					<g>
						<path style="fill:#708368;" d="M510.326,233.445c0.426,0.271-11.074,13.139-16.331,28.617
							c-5.116,16.008,6.729,26.504,6.998,26.258c0.173,0.321,14.823-5.669,15.286-22.469
							C516.436,249.507,509.834,233.559,510.326,233.445z"/>
					</g>
				</g>
				<g>
					<g>
						<path style="fill:#708368;" d="M469.807,258.234c0.496,0.097-5.521,16.273-4.771,32.602
							c1.076,16.771,15.935,22.225,16.097,21.896c0.279,0.236,11.734-10.684,6.036-26.496
							C481.352,270.961,469.39,258.52,469.807,258.234z"/>
					</g>
				</g>
			</g>
		</g>
		<g>
			<g>
				<path style="fill:none;stroke:#3E5335;stroke-width:1.0984;stroke-miterlimit:10;" d="M464.893,359.381
					c0,0,3.297-62.779-32.953-108.758"/>
				<path style="fill:none;stroke:#3E5335;stroke-width:1.0984;stroke-miterlimit:10;" d="M459.4,309.6
					c0,0-13.73-22.568-41.191-39.045"/>
				<path style="fill:none;stroke:#3E5335;stroke-width:1.0984;stroke-miterlimit:10;" d="M448.455,277.764
					c0,0-3.883-15.631,1.793-28.052"/>
			</g>
			<g>
				<g>
					<g>
						<path style="fill:#708368;" d="M402.188,211.156c-0.257,0.438,15.891,6.539,27.699,17.84
							c11.929,11.838,6.267,26.618,5.918,26.523c-0.007,0.367-15.766,1.818-23.936-12.869
							C404.184,228.225,402.676,211.029,402.188,211.156z"/>
					</g>
				</g>
				<g>
					<g>
						<path style="fill:#708368;" d="M462.002,212.197c-0.404,0.037,3.072,13.41,1.145,26.352
							c-2.224,13.271-14.5,16.404-14.602,16.129c-0.242,0.166-8.477-9.464-2.652-21.594
							C451.771,221.393,462.311,212.459,462.002,212.197z"/>
					</g>
				</g>
				<g>
					<g>
						<path style="fill:#708368;" d="M382.074,253.988c0.303-0.27,7.619,11.452,18.34,18.955
							c11.164,7.514,21.879,0.756,21.752,0.493c0.287-0.061-1.041-12.661-13.853-16.778
							C395.785,252.885,382.051,254.391,382.074,253.988z"/>
					</g>
				</g>
			</g>
		</g>
		<g>
			<g>
				<path style="fill:none;stroke:#3E5335;stroke-width:1.0984;stroke-miterlimit:10;" d="M154.827,478.912
					c0,0-4.487-47.669,0-62.812c4.485-15.14,18.271-40.936,17.383-55.517"/>
				<path style="fill:none;stroke:#3E5335;stroke-width:1.0984;stroke-miterlimit:10;" d="M147.678,383.154
					c0,0,7.48,21.055,6.332,36.592"/>
			</g>
			<g>
				<g>
					<g>
						<path style="fill:#708368;" d="M180.153,315.267c0.428,0.271-11.074,13.139-16.331,28.616c-5.116,16.009,6.73,26.505,7,26.259
							c0.172,0.32,14.821-5.669,15.285-22.47C186.264,331.328,179.662,315.381,180.153,315.267z"/>
					</g>
				</g>
				<g>
					<g>
						<path style="fill:#708368;" d="M139.635,340.057c0.496,0.097-5.521,16.272-4.77,32.602
							c1.074,16.771,15.934,22.225,16.096,21.896c0.279,0.235,11.735-10.684,6.037-26.497
							C151.181,352.782,139.217,340.342,139.635,340.057z"/>
					</g>
				</g>
			</g>
		</g>
		<g>
			<g>
				<path style="fill:none;stroke:#3E5335;stroke-width:1.0984;stroke-miterlimit:10;" d="M303.25,478.912
					c0,0-4.486-47.669,0-62.812c4.484-15.14,18.271-40.936,17.382-55.517"/>
				<path style="fill:none;stroke:#3E5335;stroke-width:1.0984;stroke-miterlimit:10;" d="M296.102,383.154
					c0,0,7.479,21.055,6.33,36.592"/>
			</g>
			<g>
				<g>
					<g>
						<path style="fill:#708368;" d="M328.577,315.267c0.426,0.271-11.076,13.139-16.333,28.616
							c-5.117,16.009,6.729,26.505,7,26.259c0.174,0.32,14.821-5.669,15.286-22.47C334.686,331.328,328.085,315.381,328.577,315.267
							z"/>
					</g>
				</g>
				<g>
					<g>
						<path style="fill:#708368;" d="M288.059,340.057c0.495,0.097-5.521,16.272-4.771,32.602
							c1.076,16.771,15.934,22.225,16.097,21.896c0.278,0.235,11.735-10.684,6.036-26.497
							C299.604,352.782,287.64,340.342,288.059,340.057z"/>
					</g>
				</g>
			</g>
		</g>
		<g>
			<g>
				<path style="fill:none;stroke:#3E5335;stroke-width:1.0984;stroke-miterlimit:10;" d="M444.619,478.912
					c0,0-4.486-47.669,0-62.812c4.486-15.14,18.271-40.936,17.383-55.517"/>
				<path style="fill:none;stroke:#3E5335;stroke-width:1.0984;stroke-miterlimit:10;" d="M437.471,383.154
					c0,0,7.479,21.055,6.332,36.592"/>
			</g>
			<g>
				<g>
					<g>
						<path style="fill:#708368;" d="M469.946,315.267c0.427,0.271-11.074,13.139-16.331,28.616
							c-5.116,16.009,6.729,26.505,7,26.259c0.172,0.32,14.821-5.669,15.284-22.47C476.057,331.328,469.454,315.381,469.946,315.267
							z"/>
					</g>
				</g>
				<g>
					<g>
						<path style="fill:#708368;" d="M429.428,340.057c0.496,0.097-5.521,16.272-4.771,32.602
							c1.077,16.771,15.935,22.225,16.098,21.896c0.279,0.235,11.735-10.684,6.037-26.497
							C440.973,352.782,429.01,340.342,429.428,340.057z"/>
					</g>
				</g>
			</g>
		</g>
		<g>
			<g>
				<path style="fill:none;stroke:#3E5335;stroke-width:1.0984;stroke-miterlimit:10;" d="M136.511,444.131
					c0,0,3.297-62.779-32.952-108.758"/>
				<path style="fill:none;stroke:#3E5335;stroke-width:1.0984;stroke-miterlimit:10;" d="M131.02,394.35
					c0,0-13.732-22.568-41.193-39.045"/>
				<path style="fill:none;stroke:#3E5335;stroke-width:1.0984;stroke-miterlimit:10;" d="M120.074,362.514
					c0,0-3.884-15.631,1.792-28.052"/>
			</g>
			<g>
				<g>
					<g>
						<path style="fill:#708368;" d="M73.805,295.906c-0.254,0.438,15.891,6.539,27.699,17.84
							c11.932,11.838,6.27,26.618,5.918,26.523c-0.007,0.367-15.764,1.818-23.936-12.869
							C75.802,312.975,74.294,295.779,73.805,295.906z"/>
					</g>
				</g>
				<g>
					<g>
						<path style="fill:#708368;" d="M133.621,296.947c-0.405,0.037,3.07,13.41,1.144,26.352
							c-2.223,13.272-14.501,16.404-14.602,16.129c-0.24,0.166-8.477-9.464-2.651-21.594
							C123.389,306.142,133.93,297.209,133.621,296.947z"/>
					</g>
				</g>
				<g>
					<g>
						<path style="fill:#708368;" d="M53.692,338.738c0.302-0.27,7.62,11.452,18.341,18.955c11.163,7.514,21.877,0.756,21.752,0.493
							c0.286-0.061-1.043-12.661-13.852-16.778C67.404,337.635,53.67,339.141,53.692,338.738z"/>
					</g>
				</g>
			</g>
		</g>
		<g>
			<g>
				<path style="fill:none;stroke:#3E5335;stroke-width:1.0984;stroke-miterlimit:10;" d="M289.8,444.131
					c0,0,3.296-62.779-32.952-108.758"/>
				<path style="fill:none;stroke:#3E5335;stroke-width:1.0984;stroke-miterlimit:10;" d="M284.308,394.35
					c0,0-13.732-22.568-41.192-39.045"/>
				<path style="fill:none;stroke:#3E5335;stroke-width:1.0984;stroke-miterlimit:10;" d="M273.363,362.514
					c0,0-3.885-15.631,1.791-28.052"/>
			</g>
			<g>
				<g>
					<g>
						<path style="fill:#708368;" d="M227.094,295.906c-0.256,0.438,15.892,6.539,27.699,17.84
							c11.93,11.838,6.272,26.618,5.916,26.523c-0.004,0.367-15.765,1.818-23.936-12.869
							C229.092,312.975,227.582,295.779,227.094,295.906z"/>
					</g>
				</g>
				<g>
					<g>
						<path style="fill:#708368;" d="M286.908,296.947c-0.402,0.037,3.073,13.41,1.146,26.352
							c-2.224,13.272-14.501,16.404-14.604,16.129c-0.241,0.166-8.475-9.464-2.649-21.594
							C276.678,306.142,287.219,297.209,286.908,296.947z"/>
					</g>
				</g>
				<g>
					<g>
						<path style="fill:#708368;" d="M206.98,338.738c0.303-0.27,7.622,11.452,18.342,18.955c11.162,7.514,21.879,0.756,21.75,0.493
							c0.287-0.061-1.039-12.661-13.852-16.778C220.693,337.635,206.959,339.141,206.98,338.738z"/>
					</g>
				</g>
			</g>
		</g>
		<g>
			<g>
				<path style="fill:none;stroke:#3E5335;stroke-width:1.0984;stroke-miterlimit:10;" d="M429.393,444.131
					c0,0,3.295-62.779-32.953-108.758"/>
				<path style="fill:none;stroke:#3E5335;stroke-width:1.0984;stroke-miterlimit:10;" d="M423.9,394.35
					c0,0-13.73-22.568-41.191-39.045"/>
				<path style="fill:none;stroke:#3E5335;stroke-width:1.0984;stroke-miterlimit:10;" d="M412.955,362.514
					c0,0-3.885-15.631,1.793-28.052"/>
			</g>
			<g>
				<g>
					<g>
						<path style="fill:#708368;" d="M366.686,295.906c-0.256,0.438,15.893,6.539,27.7,17.84
							c11.93,11.838,6.268,26.618,5.918,26.523c-0.007,0.367-15.766,1.818-23.937-12.869
							C368.684,312.975,367.176,295.779,366.686,295.906z"/>
					</g>
				</g>
				<g>
					<g>
						<path style="fill:#708368;" d="M426.502,296.947c-0.406,0.037,3.071,13.41,1.145,26.352
							c-2.225,13.272-14.5,16.404-14.602,16.129c-0.242,0.166-8.478-9.464-2.652-21.594
							C416.27,306.142,426.811,297.209,426.502,296.947z"/>
					</g>
				</g>
				<g>
					<g>
						<path style="fill:#708368;" d="M346.572,338.738c0.304-0.27,7.621,11.452,18.342,18.955
							c11.164,7.514,21.878,0.756,21.752,0.493c0.287-0.061-1.041-12.661-13.853-16.778
							C360.285,337.635,346.551,339.141,346.572,338.738z"/>
					</g>
				</g>
			</g>
		</g>
		<g>
			<g>
				<path style="fill:none;stroke:#3E5335;stroke-width:1.0984;stroke-miterlimit:10;" d="M397.607,523.3
					c0,0,3.296-62.78-32.953-108.758"/>
				<path style="fill:none;stroke:#3E5335;stroke-width:1.0984;stroke-miterlimit:10;" d="M392.112,473.517
					c0,0-13.729-22.567-41.19-39.045"/>
				<path style="fill:none;stroke:#3E5335;stroke-width:1.0984;stroke-miterlimit:10;" d="M381.168,441.684
					c0,0-3.883-15.631,1.793-28.053"/>
			</g>
			<g>
				<g>
					<g>
						<path style="fill:#708368;" d="M334.9,375.074c-0.255,0.439,15.891,6.539,27.7,17.841
							c11.928,11.837,6.267,26.618,5.916,26.523c-0.006,0.366-15.765,1.817-23.936-12.87
							C336.897,392.142,335.388,374.948,334.9,375.074z"/>
					</g>
				</g>
				<g>
					<g>
						<path style="fill:#708368;" d="M394.715,376.117c-0.404,0.035,3.071,13.408,1.143,26.35
							c-2.224,13.272-14.499,16.404-14.6,16.13c-0.242,0.165-8.476-9.464-2.652-21.594
							C384.484,385.31,395.025,376.377,394.715,376.117z"/>
					</g>
				</g>
				<g>
					<g>
						<path style="fill:#708368;" d="M314.787,417.906c0.303-0.27,7.62,11.453,18.34,18.955c11.164,7.515,21.879,0.756,21.752,0.494
							c0.287-0.063-1.041-12.662-13.854-16.778C328.499,416.804,314.764,418.309,314.787,417.906z"/>
					</g>
				</g>
			</g>
		</g>
		<g>
			<g>
				<path style="fill:none;stroke:#3E5335;stroke-width:1.0984;stroke-miterlimit:10;" d="M248.35,523.3
					c0,0,3.295-62.78-32.953-108.758"/>
				<path style="fill:none;stroke:#3E5335;stroke-width:1.0984;stroke-miterlimit:10;" d="M242.855,473.517
					c0,0-13.729-22.567-41.189-39.045"/>
				<path style="fill:none;stroke:#3E5335;stroke-width:1.0984;stroke-miterlimit:10;" d="M231.911,441.684
					c0,0-3.882-15.631,1.794-28.053"/>
			</g>
			<g>
				<g>
					<g>
						<path style="fill:#708368;" d="M185.644,375.074c-0.255,0.439,15.891,6.539,27.698,17.841
							c11.93,11.837,6.27,26.618,5.918,26.523c-0.006,0.366-15.766,1.817-23.936-12.87
							C187.64,392.142,186.131,374.948,185.644,375.074z"/>
					</g>
				</g>
				<g>
					<g>
						<path style="fill:#708368;" d="M245.459,376.117c-0.405,0.035,3.07,13.408,1.144,26.35
							c-2.224,13.272-14.499,16.404-14.602,16.13c-0.241,0.165-8.476-9.464-2.651-21.594
							C235.227,385.31,245.768,376.377,245.459,376.117z"/>
					</g>
				</g>
				<g>
					<g>
						<path style="fill:#708368;" d="M165.529,417.906c0.305-0.27,7.621,11.453,18.342,18.955
							c11.163,7.515,21.879,0.756,21.752,0.494c0.287-0.063-1.041-12.662-13.853-16.778
							C179.242,416.804,165.508,418.309,165.529,417.906z"/>
					</g>
				</g>
			</g>
		</g>
		<g>
			<g>
				<path style="fill:none;stroke:#3E5335;stroke-width:1.0984;stroke-miterlimit:10;" d="M101.904,523.3
					c0,0,3.295-62.78-32.953-108.758"/>
				<path style="fill:none;stroke:#3E5335;stroke-width:1.0984;stroke-miterlimit:10;" d="M96.41,473.517
					c0,0-13.729-22.567-41.191-39.045"/>
				<path style="fill:none;stroke:#3E5335;stroke-width:1.0984;stroke-miterlimit:10;" d="M85.465,441.684
					c0,0-3.882-15.631,1.794-28.053"/>
			</g>
			<g>
				<g>
					<g>
						<path style="fill:#708368;" d="M39.197,375.074c-0.256,0.439,15.891,6.539,27.699,17.841
							c11.93,11.837,6.27,26.618,5.918,26.523c-0.007,0.366-15.766,1.817-23.937-12.87
							C41.193,392.142,39.686,374.948,39.197,375.074z"/>
					</g>
				</g>
				<g>
					<g>
						<path style="fill:#708368;" d="M99.014,376.117c-0.405,0.035,3.07,13.408,1.143,26.35c-2.224,13.272-14.5,16.404-14.602,16.13
							c-0.242,0.165-8.475-9.464-2.651-21.594C88.781,385.31,99.322,376.377,99.014,376.117z"/>
					</g>
				</g>
				<g>
					<g>
						<path style="fill:#708368;" d="M19.084,417.906c0.303-0.27,7.621,11.453,18.342,18.955
							c11.162,7.515,21.877,0.756,21.752,0.494c0.286-0.063-1.043-12.662-13.854-16.778
							C32.797,416.804,19.062,418.309,19.084,417.906z"/>
					</g>
				</g>
			</g>
		</g>
	</g>
</g>
</svg>
